<svg width="193" height="57" viewBox="0 0 193 57" fill="none" xmlns="http://www.w3.org/2000/svg">
<rect width="193" height="57" rx="28.5" fill="#C90B13"/>
<path d="M53.2532 36.4537H47.9234V22.0633L43.6596 36.4537H39.6622L35.1319 22.0633V36.4537H33V17H38.8628L43.1266 30.5909L47.3904 17H53.2532V36.4537V36.4537Z" fill="white"/>
<path d="M71.6409 29.525H61.2479C61.2479 30.591 61.2479 31.3905 61.5144 31.9234C61.7808 32.4564 61.7808 33.2559 62.3138 33.5224C62.5803 34.0554 62.8468 34.3218 63.3798 34.3218C63.6463 34.5883 64.1792 34.5883 64.7122 34.5883C65.5117 34.5883 66.3112 34.3218 66.8441 33.7889C67.3771 33.2559 67.6436 32.1899 67.6436 30.8575H71.9074C71.9074 32.7229 71.3745 34.0554 70.042 35.1213C68.7096 36.1873 66.8441 36.7202 64.4457 36.7202C63.3798 36.7202 62.0473 36.4538 61.2479 36.1873C60.1819 35.9208 59.3824 35.3878 58.8495 34.5883C58.3165 33.7889 57.2505 33.2559 56.7175 32.1899C56.4511 31.3905 56.1846 30.3245 56.1846 28.9921C56.1846 27.6596 56.4511 26.5937 56.7175 25.7942C57.2505 24.9947 57.7835 24.1953 58.583 23.3958C59.3824 22.5963 60.1819 22.3298 61.2479 21.7968C62.3138 21.2639 63.3798 21.2639 64.4457 21.2639C65.7782 21.2639 66.8441 21.5304 67.6436 21.7968C68.4431 22.0633 69.2425 22.5963 70.042 23.1293C70.8415 23.6623 71.108 24.4617 71.3745 25.2612C71.6409 26.0607 71.9074 26.8601 71.9074 27.9261V29.525H71.6409ZM64.4457 23.3958C63.6463 23.3958 62.8468 23.6623 62.3138 24.4617C61.7808 24.9947 61.5144 26.3272 61.5144 27.6596H67.3771C67.3771 26.0607 67.1106 24.9947 66.5777 24.4617C66.0447 23.9288 65.2452 23.3958 64.4457 23.3958Z" fill="white"/>
<path d="M84.9651 21.5304C86.8305 21.5304 88.163 22.0634 89.229 23.3958C90.2949 24.7283 90.8279 26.5937 90.8279 29.2586C90.8279 30.591 90.5614 31.657 90.2949 32.723C90.0284 33.7889 89.4954 34.5884 88.9625 35.1214C88.4295 35.6543 87.8965 36.1873 87.097 36.4538C86.2976 36.7203 85.4981 36.9868 84.6986 36.9868C83.3662 36.9868 82.3002 36.7203 81.2343 35.9208C80.1683 35.1214 79.6353 34.3219 79.3688 33.2559V42.0501H74.0391V21.7969H79.3688V25.2613C79.6353 24.1953 80.4348 23.1293 81.2343 22.5964C82.3002 21.7969 83.6327 21.5304 84.9651 21.5304ZM82.3002 34.0554C83.3662 34.0554 83.8992 33.7889 84.4321 32.9894C84.9651 32.19 85.2316 31.124 85.2316 29.2586C85.2316 27.3932 84.9651 26.3272 84.4321 25.5277C83.8992 24.7283 83.0997 24.4618 82.3002 24.4618C81.5008 24.4618 80.7013 24.7283 80.1683 25.2613C79.6353 25.7942 79.3688 26.5937 79.3688 27.3932V30.8575C79.3688 31.657 79.6353 32.4565 80.1683 32.9894C80.9678 33.7889 81.5008 34.0554 82.3002 34.0554Z" fill="white"/>
<path d="M93.4927 28.459H103.619V30.5909H93.4927V28.459Z" fill="white"/>
<path d="M118.277 17H123.606V36.4537H118.277V27.1266H112.68V36.4537H107.351V17H112.68V24.7282H118.277V17Z" fill="white"/>
<path d="M139.063 21.7968H141.195L131.868 41.7835H129.736L132.401 36.4537L125.738 21.7968H131.335L135.065 30.5909L139.063 21.7968Z" fill="white"/>
<path d="M153.186 21.5304C155.052 21.5304 156.384 22.0634 157.45 23.3958C158.516 24.7283 159.049 26.5937 159.049 29.2586C159.049 30.591 158.783 31.657 158.516 32.723C158.25 33.7889 157.717 34.5884 157.184 35.1214C156.917 35.6543 156.384 35.9208 155.585 36.4538C154.785 36.7203 153.986 36.9868 153.186 36.9868C151.854 36.9868 150.788 36.7203 149.722 35.9208C148.656 35.1214 148.123 34.3219 147.857 33.2559V42.0501H142.527V21.7969H147.857V25.2613C148.123 24.1953 148.923 23.1293 149.722 22.5964C150.788 21.7969 151.854 21.5304 153.186 21.5304ZM150.788 34.0554C151.854 34.0554 152.387 33.7889 152.92 32.9894C153.453 32.19 153.719 31.124 153.719 29.2586C153.719 27.3932 153.453 26.0607 152.92 25.2613C152.387 24.4618 151.587 24.1953 150.788 24.1953C149.989 24.1953 149.189 24.4618 148.656 24.9948C148.123 25.5277 147.857 26.3272 147.857 27.1267V30.591C147.857 31.3905 148.123 32.19 148.656 32.723C149.189 33.7889 149.989 34.0554 150.788 34.0554Z" fill="white"/>
</svg>
